<svg viewbox="64 64 896 896" focusable="false" class="" data-icon="align-right" width="28px" height="28px" fill="currentColor" aria-hidden="true"><path d="M904 158H408c-4.4 0-8 3.6-8 8v56c0 4.4 3.6 8 8 8h496c4.4 0 8-3.6 8-8v-56c0-4.4-3.6-8-8-8zm0 424H408c-4.4 0-8 3.6-8 8v56c0 4.4 3.6 8 8 8h496c4.4 0 8-3.6 8-8v-56c0-4.4-3.6-8-8-8zm0 212H120c-4.4 0-8 3.6-8 8v56c0 4.4 3.6 8 8 8h784c4.4 0 8-3.6 8-8v-56c0-4.4-3.6-8-8-8zm0-424H120c-4.4 0-8 3.6-8 8v56c0 4.4 3.6 8 8 8h784c4.4 0 8-3.6 8-8v-56c0-4.4-3.6-8-8-8z"/></svg>